<?xml version="1.0" encoding="utf-8"?>
<!-- Generator: Adobe Illustrator 19.0.0, SVG Export Plug-In . SVG Version: 6.00 Build 0)  -->
<svg version="1.1" id="Layer_1" xmlns="http://www.w3.org/2000/svg" xmlns:xlink="http://www.w3.org/1999/xlink" x="0px" y="0px"
	 viewBox="196 192.7 1003.8 371.3" style="enable-background:new 196 192.7 1003.8 371.3;" xml:space="preserve">
<style type="text/css">
	.st0{fill:url(#SVGID_1_);}
	.st1{fill:url(#SVGID_2_);}
</style>
<linearGradient id="SVGID_1_" gradientUnits="userSpaceOnUse" x1="192.1361" y1="378.3639" x2="1199.7" y2="378.3639">
	<stop  offset="0.1182" style="stop-color:#CD22D9"/>
	<stop  offset="0.6108" style="stop-color:#5848FB"/>
	<stop  offset="1" style="stop-color:#DB3EE6"/>
</linearGradient>
<path class="st0" d="M196,564c-1.4-6.3-1.3-11.3-0.8-14.7c0.4-2.8,1.2-6.4-0.2-7.2c-1-0.6-2.5,0.9-2.8,0.7
	c-0.6-0.6,8.9-13.6,23.8-28c15.2-14.7,35.4-34.2,66-44c14.6-4.7,27.8-5.9,40-6c72.3-0.6,150.9,38.5,211,43
	c112.9,8.4,135.5-107.3,229-89c74,14.5,97.2,94.4,182,94c26.7-0.1,48.5-8.1,63-15c7.3-5.8,17-14.6,26.6-26.7
	c7.7-9.7,12.6-18.2,15.4-23.3c24.9-45,48.7-118.9,62.5-142.4c1.5-2.6,5.6-9.4,11.1-18.9c6.4-11,7-12.1,11.2-18.7
	c14-22,30.2-42.7,48.6-60.2c5.5-5.2,11.2-10.5,17.3-14.7v371.2C865.1,563.9,530.6,564,196,564z"/>
<linearGradient id="SVGID_2_" gradientUnits="userSpaceOnUse" x1="413" y1="494.7" x2="413" y2="494.7">
	<stop  offset="0.1182" style="stop-color:#CD22D9"/>
	<stop  offset="0.6108" style="stop-color:#5848FB"/>
	<stop  offset="1" style="stop-color:#DB3EE6"/>
</linearGradient>
<path class="st1" d="M413,494.7"/>
</svg>
